<?xml version="1.0" encoding="UTF-8"?>
<svg xmlns="http://www.w3.org/2000/svg" xmlns:xlink="http://www.w3.org/1999/xlink" viewBox="0 0 815.9 249.85">
  <defs>
    <style>
      .cls-1 {
        stroke: #7c40ff;
      }

      .cls-1, .cls-2, .cls-3 {
        fill: none;
      }

      .cls-1, .cls-3 {
        stroke-miterlimit: 10;
      }

      .cls-4, .cls-5 {
        isolation: isolate;
      }

      .cls-6 {
        fill: #a618c9;
      }

      .cls-6, .cls-7 {
        stroke: #1d1d1b;
        stroke-linecap: round;
        stroke-linejoin: round;
        stroke-width: 3px;
      }

      .cls-7 {
        fill: #7a08f9;
      }

      .cls-8 {
        clip-path: url(#clippath);
      }

      .cls-9 {
        mask: url(#mask);
      }

      .cls-5 {
        opacity: .47;
      }

      .cls-3 {
        stroke: #a77fff;
      }

      .cls-10 {
        mix-blend-mode: multiply;
      }

      .cls-11 {
        filter: url(#luminosity-invert-noclip);
      }
    </style>
    <filter id="luminosity-invert-noclip" x="-144.21" y="-198.93" width="1077.73" height="645.85" color-interpolation-filters="sRGB" filterUnits="userSpaceOnUse">
      <feColorMatrix result="cm" values="-1 0 0 0 1 0 -1 0 0 1 0 0 -1 0 1 0 0 0 1 0"/>
      <feFlood flood-color="#fff" result="bg"/>
      <feBlend in="cm" in2="bg"/>
    </filter>
    <clipPath id="clippath">
      <rect class="cls-2" x="-104.57" y="-198.93" width="968.77" height="645.85"/>
    </clipPath>
    <mask id="mask" x="-144.21" y="-198.93" width="1077.73" height="645.85" maskUnits="userSpaceOnUse">
      <g class="cls-11">
        <g class="cls-5">
          <g class="cls-8">
            <g>
              <path class="cls-3" d="m932.99,8.11c-239.67.38-477.35,1.86-715.22-.35-58.88,1.41-121.99,1.01-180.37,2.97C-8.41,5.89-57.23,8.06-104.71,7.66c-11.92,3.42-40.49-6.61-38.88,8.73,227.16-1.73,448.71,1.14,676.12-1.59,86.22,4.94,173.73.38,259.03.23,24.47-6.8,143.42,14.81,141.44-6.92Z"/>
              <path class="cls-3" d="m909.54,231.76c-350.95-1.71-702.05,4.63-1053.14-1.84,5.45,25.74,143.49.98,177.66,7.18,135.3,3.83,270.05,3.38,406.44,2.9,47.51-3.63,559.55,6.25,469.04-8.24Z"/>
              <path class="cls-3" d="m932.99,57.54c-239.67.38-477.35,1.86-715.22-.35-58.88,1.41-121.99,1.01-180.37,2.97-45.82-4.83-94.63-2.66-142.12-3.06-11.92,3.42-40.49-6.61-38.88,8.73,227.16-1.73,448.71,1.14,676.12-1.59,86.22,4.94,173.73.38,259.03.23,24.47-6.8,143.41,14.81,141.44-6.92Z"/>
              <path class="cls-3" d="m909.54,182.33c-350.95-1.71-702.05,4.63-1053.14-1.84,5.45,25.74,143.49.98,177.66,7.18,135.3,3.83,270.05,3.38,406.44,2.9,47.51-3.63,559.55,6.25,469.04-8.24Z"/>
              <path class="cls-3" d="m932.99,106.97c-239.67.38-477.35,1.86-715.22-.35-58.88,1.41-121.99,1.01-180.37,2.97-45.82-4.83-94.63-2.66-142.12-3.06-11.92,3.42-40.49-6.61-38.88,8.73,227.16-1.73,448.71,1.14,676.12-1.59,86.22,4.94,173.73.38,259.03.23,24.47-6.8,143.41,14.81,141.44-6.92Z"/>
              <path class="cls-3" d="m909.54,132.9c-350.95-1.71-702.05,4.63-1053.14-1.84,5.45,25.74,143.49.98,177.66,7.18,135.3,3.83,270.05,3.38,406.44,2.9,47.51-3.63,559.55,6.25,469.04-8.24Z"/>
              <path class="cls-3" d="m932.99,156.4c-239.67.38-477.35,1.86-715.22-.35-58.88,1.41-121.99,1.01-180.37,2.97-45.82-4.83-94.63-2.66-142.12-3.06-11.92,3.42-40.49-6.61-38.88,8.73,227.16-1.73,448.71,1.14,676.12-1.59,86.22,4.94,173.73.38,259.03.23,24.47-6.8,143.41,14.81,141.44-6.92Z"/>
              <path class="cls-3" d="m909.54,83.47c-350.95-1.71-702.05,4.63-1053.14-1.84,5.45,25.74,143.49.98,177.66,7.18,135.3,3.83,270.05,3.38,406.44,2.9,47.51-3.63,559.55,6.25,469.04-8.24Z"/>
              <path class="cls-3" d="m932.99,205.82c-239.67.38-477.35,1.86-715.22-.35-58.88,1.41-121.99,1.01-180.37,2.97-45.82-4.83-94.63-2.66-142.12-3.06-11.92,3.42-40.49-6.61-38.88,8.73,227.16-1.73,448.71,1.14,676.12-1.59,86.22,4.94,173.73.38,259.03.23,24.47-6.8,143.41,14.81,141.44-6.92Z"/>
              <path class="cls-3" d="m909.54,34.04c-350.95-1.71-702.05,4.63-1053.14-1.84,5.45,25.74,143.49.98,177.66,7.18,135.3,3.83,270.05,3.38,406.44,2.9,47.51-3.63,559.55,6.25,469.04-8.24Z"/>
            </g>
            <g>
              <path class="cls-1" d="m932.99,11.98c-239.67.38-477.35,1.86-715.22-.35-58.88,1.41-121.99,1.01-180.37,2.97-45.82-4.83-94.63-2.66-142.12-3.06-11.92,3.42-40.49-6.61-38.88,8.73,227.16-1.73,448.71,1.14,676.12-1.59,86.22,4.94,173.73.38,259.03.23,24.47-6.8,143.42,14.81,141.44-6.92Z"/>
              <path class="cls-1" d="m909.54,235.64c-350.95-1.71-702.05,4.63-1053.14-1.84,5.45,25.74,143.49.98,177.66,7.18,135.3,3.83,270.05,3.38,406.44,2.9,47.51-3.63,559.55,6.25,469.04-8.24Z"/>
              <path class="cls-1" d="m932.99,61.41c-239.67.38-477.35,1.86-715.22-.35-58.88,1.41-121.99,1.01-180.37,2.97-45.82-4.83-94.63-2.66-142.12-3.06-11.92,3.42-40.49-6.61-38.88,8.73,227.16-1.73,448.71,1.14,676.12-1.59,86.22,4.94,173.73.38,259.03.23,24.47-6.8,143.41,14.81,141.44-6.92Z"/>
              <path class="cls-1" d="m909.54,186.21c-350.95-1.71-702.05,4.63-1053.14-1.84,5.45,25.74,143.49.98,177.66,7.18,135.3,3.83,270.05,3.38,406.44,2.9,47.51-3.63,559.55,6.25,469.04-8.24Z"/>
              <path class="cls-1" d="m932.99,110.84c-239.67.38-477.35,1.86-715.22-.35-58.88,1.41-121.99,1.01-180.37,2.97-45.82-4.83-94.63-2.66-142.12-3.06-11.92,3.42-40.49-6.61-38.88,8.73,227.16-1.73,448.71,1.14,676.12-1.59,86.22,4.94,173.73.38,259.03.23,24.47-6.8,143.41,14.81,141.44-6.92Z"/>
              <path class="cls-1" d="m909.54,136.78c-350.95-1.71-702.05,4.63-1053.14-1.84,5.45,25.74,143.49.98,177.66,7.18,135.3,3.83,270.05,3.38,406.44,2.9,47.51-3.63,559.55,6.25,469.04-8.24Z"/>
              <path class="cls-1" d="m932.99,160.27c-239.67.38-477.35,1.86-715.22-.35-58.88,1.41-121.99,1.01-180.37,2.97-45.82-4.83-94.63-2.66-142.12-3.06-11.92,3.42-40.49-6.61-38.88,8.73,227.16-1.73,448.71,1.14,676.12-1.59,86.22,4.94,173.73.38,259.03.23,24.47-6.8,143.41,14.81,141.44-6.92Z"/>
              <path class="cls-1" d="m909.54,87.35c-350.95-1.71-702.05,4.63-1053.14-1.84,5.45,25.74,143.49.98,177.66,7.18,135.3,3.83,270.05,3.38,406.44,2.9,47.51-3.63,559.55,6.25,469.04-8.24Z"/>
              <path class="cls-1" d="m932.99,209.7c-239.67.38-477.35,1.86-715.22-.35-58.88,1.41-121.99,1.01-180.37,2.97-45.82-4.83-94.63-2.66-142.12-3.06-11.92,3.42-40.49-6.61-38.88,8.73,227.16-1.73,448.71,1.14,676.12-1.59,86.22,4.94,173.73.38,259.03.23,24.47-6.8,143.41,14.81,141.44-6.92Z"/>
              <path class="cls-1" d="m909.54,37.92c-350.95-1.71-702.05,4.63-1053.14-1.84,5.45,25.74,143.49.98,177.66,7.18,135.3,3.83,270.05,3.38,406.44,2.9,47.51-3.63,559.55,6.25,469.04-8.24Z"/>
            </g>
          </g>
        </g>
      </g>
    </mask>
  </defs>
  <g class="cls-4">
    <g id="Capa_2" data-name="Capa 2">
      <g id="Capa_1-2" data-name="Capa 1">
        <g>
          <g>
            <path class="cls-6" d="m23.64,248.35c-12.21,0-22.14-9.94-22.14-22.16v-33.8c0-11.54,8.67-21.02,20.17-22.06,10.41-.94,15.28-3.22,17.53-4.96,1.43-1.11,5.78-4.48,5.78-15.54l-.3-126.12c-.01-5.93,2.28-11.5,6.47-15.7,4.19-4.2,9.76-6.51,15.68-6.51h37.27c12.22,0,22.15,9.94,22.15,22.15v121.53c0,63.44-35.02,99.1-101.26,103.13-.45.03-.91.04-1.35.04Z"/>
            <path class="cls-6" d="m217.53,245.39c-40.65,0-63.04-21.8-63.04-61.38V62.88c0-39.58,22.39-61.38,63.04-61.38h102.61c12.22,0,22.15,9.94,22.15,22.15v30.34c0,12.22-9.94,22.15-22.15,22.15h-82.11c-1.25,0-2.27,1.02-2.27,2.27v5.44c0,1.25,1.02,2.27,2.27,2.27h74.47c12.22,0,22.15,9.94,22.15,22.15v30.34c0,12.22-9.94,22.15-22.15,22.15h-74.47c-1.25,0-2.27,1.02-2.27,2.27v5.44c0,1.25,1.02,2.27,2.27,2.27h83.77c12.22,0,22.15,9.94,22.15,22.15v30.33c0,12.22-9.94,22.15-22.15,22.15h-104.27Z"/>
            <path class="cls-6" d="m426.94,245.39c-40.65,0-63.04-21.8-63.04-61.38V62.88c0-39.58,22.39-61.38,63.04-61.38h102.61c12.22,0,22.15,9.94,22.15,22.15v30.34c0,12.22-9.94,22.15-22.15,22.15h-82.11c-1.25,0-2.27,1.02-2.27,2.27v5.44c0,1.25,1.02,2.27,2.27,2.27h74.47c12.22,0,22.15,9.94,22.15,22.15v30.34c0,12.22-9.94,22.15-22.15,22.15h-74.47c-1.25,0-2.27,1.02-2.27,2.27v5.44c0,1.25,1.02,2.27,2.27,2.27h83.77c12.22,0,22.15,9.94,22.15,22.15v30.33c0,12.22-9.94,22.15-22.15,22.15h-104.27Z"/>
            <path class="cls-6" d="m747.38,245.39c-8.01,0-15.42-4.34-19.33-11.33l-30.8-55.03c-2.81-5.33-5.24-10.51-7.23-15.4-.38-.93-1.22-1.53-2.15-1.53h-.51c-.93,0-1.77.6-2.15,1.53-1.98,4.89-4.41,10.07-7.22,15.4l-30.8,55.04c-3.91,6.99-11.32,11.33-19.33,11.33h-44.83c-8.05,0-15.23-4.17-19.23-11.15s-3.95-15.3.13-22.23l38.96-66.22c8.63-14.47,9.91-21.56,9.91-24.5,0-2.18-.97-8.9-9.92-24.18l-36.84-62.16c-4.11-6.93-4.18-15.25-.19-22.26,3.99-7,11.19-11.19,19.25-11.19h43.04c8.07,0,15.5,4.39,19.4,11.46l30.37,55.08c2.96,5.45,5.47,10.88,7.51,16.21.36.94,1.2,1.55,2.15,1.55,1.05,0,1.89-.61,2.25-1.55,2.04-5.32,4.56-10.76,7.48-16.15l30.4-55.14c3.9-7.07,11.33-11.46,19.4-11.46h43.04c8.06,0,15.26,4.18,19.25,11.19,3.99,7,3.92,15.33-.19,22.26l-36.86,62.21c-8.93,15.23-9.9,21.95-9.9,24.14,0,2.94,1.28,10.03,9.88,24.44l38.98,66.28c4.08,6.94,4.13,15.25.14,22.23-3.99,6.98-11.18,11.15-19.23,11.15h-44.83Z"/>
          </g>
          <g class="cls-9">
            <g class="cls-10">
              <path class="cls-7" d="m13.31,225.26v-33.8c0-6.32,4.83-11.59,11.12-12.16,10.33-.93,17.9-3.26,22.73-7.01,6.41-4.98,9.62-12.78,9.62-23.4l-.3-126.15c-.02-6.76,5.46-12.24,12.21-12.24h37.27c6.74,0,12.21,5.47,12.21,12.21v121.53c0,58.41-30.64,89.48-91.92,93.21-7.02.43-12.95-5.17-12.95-12.2Z"/>
              <path class="cls-7" d="m335.88,222.31c0,6.74-5.47,12.21-12.21,12.21h-104.27c-35.4,0-53.1-17.14-53.1-51.44V61.95c0-34.29,17.7-51.44,53.1-51.44h102.61c6.74,0,12.21,5.47,12.21,12.21v30.34c0,6.74-5.47,12.21-12.21,12.21h-82.11c-6.74,0-12.21,5.47-12.21,12.21v5.44c0,6.74,5.47,12.21,12.21,12.21h74.47c6.74,0,12.21,5.47,12.21,12.21v30.34c0,6.74-5.47,12.21-12.21,12.21h-74.47c-6.74,0-12.21,5.47-12.21,12.21v5.44c0,6.74,5.47,12.21,12.21,12.21h83.77c6.74,0,12.21,5.47,12.21,12.21v30.33Z"/>
              <path class="cls-7" d="m545.29,222.31c0,6.74-5.47,12.21-12.21,12.21h-104.27c-35.4,0-53.1-17.14-53.1-51.44V61.95c0-34.29,17.7-51.44,53.1-51.44h102.61c6.74,0,12.21,5.47,12.21,12.21v30.34c0,6.74-5.47,12.21-12.21,12.21h-82.11c-6.74,0-12.21,5.47-12.21,12.21v5.44c0,6.74,5.47,12.21,12.21,12.21h74.47c6.74,0,12.21,5.47,12.21,12.21v30.34c0,6.74-5.47,12.21-12.21,12.21h-74.47c-6.74,0-12.21,5.47-12.21,12.21v5.44c0,6.74,5.47,12.21,12.21,12.21h83.77c6.74,0,12.21,5.47,12.21,12.21v30.33Z"/>
              <path class="cls-7" d="m629.72,234.52h-44.83c-9.44,0-15.31-10.26-10.53-18.4l38.95-66.22c7.52-12.61,11.28-22.45,11.28-29.54,0-6.64-3.76-16.37-11.28-29.2l-36.86-62.21c-4.82-8.14,1.04-18.44,10.51-18.44h43.04c4.45,0,8.55,2.42,10.69,6.32l30.37,55.08c2.73,5.04,5.04,10.02,6.93,14.96,1.82,4.76,6.34,7.94,11.43,7.94h.1c5.1,0,9.61-3.18,11.43-7.94,1.89-4.94,4.2-9.92,6.94-14.96l30.37-55.08c2.15-3.9,6.25-6.32,10.69-6.32h43.04c9.46,0,15.33,10.3,10.51,18.44l-36.86,62.21c-7.52,12.83-11.28,22.57-11.28,29.2,0,7.08,3.76,16.93,11.28,29.54l38.95,66.22c4.79,8.14-1.08,18.4-10.53,18.4h-44.83c-4.42,0-8.5-2.39-10.66-6.25l-30.69-54.82c-2.67-5.05-4.94-9.89-6.8-14.5s-6.34-7.74-11.36-7.74h-.51c-5.02,0-9.48,3.09-11.36,7.74-1.87,4.61-4.13,9.44-6.8,14.5l-30.68,54.82c-2.16,3.86-6.24,6.25-10.66,6.25Z"/>
            </g>
          </g>
        </g>
      </g>
    </g>
  </g>
</svg>