<?xml version="1.0" encoding="UTF-8"?>
<svg id="Capa_2" data-name="Capa 2" xmlns="http://www.w3.org/2000/svg" xmlns:xlink="http://www.w3.org/1999/xlink" viewBox="0 0 804.73 260.78">
  <defs>
    <style>
      .cls-1 {
        fill: #fff;
      }

      .cls-2 {
        fill: url(#Degradado_sin_nombre_2);
      }
    </style>
    <linearGradient id="Degradado_sin_nombre_2" data-name="Degradado sin nombre 2" x1="402.37" y1="252" x2="402.37" y2="10.77" gradientUnits="userSpaceOnUse">
      <stop offset="0" stop-color="#d60b52"/>
      <stop offset="1" stop-color="#95c11f"/>
    </linearGradient>
  </defs>
  <g id="Capa_2-2" data-name="Capa 2">
    <g>
      <rect class="cls-2" width="804.73" height="260.78"/>
      <g>
        <path class="cls-1" d="m160.62,125.55v-55.33h41.5v55.48c0,30.28-15.68,51.64-67.78,51.64-18.6,0-33.96-2.46-46.57-6.61l9.22-33.66c10.45,3.07,24.9,4.92,35.81,4.92,24.74,0,27.82-6.15,27.82-16.45Z"/>
        <path class="cls-1" d="m212.87,175.04v-104.81h143.24v32.27h-101.74v6.92h98.82v26.13h-98.82v7.22h101.74v32.27h-143.24Z"/>
        <path class="cls-1" d="m366.87,175.04v-104.81h143.24v32.27h-101.74v6.92h98.82v26.13h-98.82v7.22h101.74v32.27h-143.24Z"/>
        <path class="cls-1" d="m580.33,70.22l37.04,30.89,37.65-30.89h59.78l-64.7,52.41,65.01,52.41h-62.86l-35.81-29.97-36.42,29.97h-61.47l65.16-51.79-65.62-53.02h62.24Z"/>
      </g>
    </g>
  </g>
</svg>